<?xml version="1.0" standalone="no"?>
<!DOCTYPE svg PUBLIC "-//W3C//DTD SVG 20010904//EN"
 "http://www.w3.org/TR/2001/REC-SVG-20010904/DTD/svg10.dtd">
<svg version="1.0" xmlns="http://www.w3.org/2000/svg"
 width="1024.000000pt" height="1024.000000pt" viewBox="0 0 1024.000000 1024.000000"
 preserveAspectRatio="xMidYMid meet">
<metadata>
Created by potrace 1.14, written by Peter Selinger 2001-2017
</metadata>
<g transform="translate(0.000000,1024.000000) scale(0.100000,-0.100000)"
fill="#000000" stroke="none">
<path d="M4972 9655 c-119 -26 -230 -100 -306 -204 -34 -46 -112 -198 -351
-686 -59 -121 -209 -425 -332 -675 -124 -250 -295 -598 -380 -772 -86 -174
-159 -316 -162 -315 -6 1 -106 -12 -147 -19 -32 -6 -280 -44 -329 -50 -41 -6
-54 -8 -115 -18 -19 -3 -53 -8 -75 -11 -22 -3 -65 -10 -95 -15 -30 -5 -80 -12
-110 -15 -30 -4 -57 -8 -60 -10 -3 -2 -27 -6 -55 -9 -56 -8 -217 -31 -375 -56
-36 -6 -81 -12 -100 -15 -19 -3 -66 -10 -105 -16 -38 -6 -81 -12 -95 -14 -37
-5 -112 -17 -135 -21 -11 -2 -40 -6 -65 -10 -25 -3 -70 -9 -100 -14 -75 -13
-107 -18 -160 -24 -25 -3 -54 -8 -65 -10 -17 -3 -128 -20 -205 -31 -33 -5
-111 -17 -130 -20 -8 -2 -35 -6 -60 -9 -100 -14 -139 -25 -205 -57 -75 -36
-126 -77 -174 -143 -107 -145 -147 -369 -93 -528 42 -126 74 -163 509 -585
112 -108 486 -472 707 -686 50 -49 215 -209 366 -357 151 -147 314 -305 362
-351 l87 -84 -9 -45 c-4 -25 -11 -63 -14 -85 -4 -23 -9 -52 -11 -65 -3 -14 -8
-45 -11 -70 -3 -25 -8 -47 -9 -50 -2 -3 -6 -26 -10 -50 -3 -25 -12 -81 -20
-125 -8 -44 -17 -96 -20 -115 -3 -19 -10 -57 -15 -85 -5 -27 -12 -66 -14 -85
-3 -19 -7 -44 -9 -55 -5 -22 -13 -71 -22 -125 -3 -19 -19 -109 -35 -200 -16
-91 -31 -178 -33 -195 -3 -16 -8 -48 -12 -70 -3 -22 -22 -130 -41 -240 -19
-110 -37 -218 -40 -240 -3 -22 -7 -46 -10 -54 -2 -8 -7 -37 -10 -65 -3 -28 -8
-54 -10 -57 -2 -4 -6 -24 -9 -45 -6 -40 -22 -133 -29 -170 -2 -12 -7 -39 -11
-60 -9 -59 -16 -100 -40 -244 -10 -56 -8 -171 4 -223 33 -144 147 -287 300
-375 157 -91 330 -89 504 7 40 21 144 76 232 121 88 45 223 115 300 155 77 40
192 100 255 133 63 32 169 87 235 122 159 83 366 190 550 285 83 43 191 99
240 125 50 26 188 98 308 159 l217 112 203 -104 c111 -58 240 -125 287 -149
47 -25 175 -91 285 -148 110 -56 232 -119 270 -140 39 -21 147 -77 240 -125
94 -48 202 -104 240 -125 39 -20 151 -79 250 -130 99 -51 218 -112 265 -137
344 -181 418 -211 527 -217 240 -13 507 184 569 418 14 54 20 168 11 226 -10
62 -107 631 -112 653 -2 12 -7 38 -10 57 -2 19 -9 62 -15 95 -6 33 -15 85 -20
115 -5 30 -20 123 -35 205 -14 83 -28 166 -31 185 -3 19 -9 53 -14 75 -5 22
-12 63 -15 90 -4 28 -8 57 -10 65 -2 8 -6 29 -9 45 -3 17 -17 98 -31 180 -15
83 -28 161 -30 175 -1 14 -6 41 -10 60 -8 44 -64 367 -75 440 -5 30 -12 69
-15 85 -14 84 -20 73 102 191 62 62 231 226 375 365 356 347 376 366 703 684
159 154 360 350 448 435 309 299 332 326 383 450 24 57 27 79 28 175 0 88 -5
124 -23 180 -48 147 -114 243 -210 304 -80 52 -149 72 -321 96 -25 4 -88 13
-140 21 -52 9 -106 17 -120 19 -14 1 -102 15 -197 29 -94 14 -189 28 -210 32
-21 3 -78 12 -128 19 -49 8 -106 16 -125 19 -19 3 -96 14 -170 26 -74 11 -153
23 -175 26 -22 2 -65 9 -95 14 -30 5 -75 12 -100 15 -25 3 -56 8 -70 11 -14 2
-43 7 -65 10 -22 3 -49 7 -60 8 -11 2 -40 6 -65 10 -25 4 -56 9 -70 11 -14 2
-45 7 -70 10 -25 3 -67 10 -95 15 -27 5 -68 11 -90 14 -34 4 -79 11 -205 31
-14 2 -45 6 -70 10 -25 3 -56 8 -70 10 -14 2 -43 7 -65 10 -22 3 -48 8 -58 11
-18 6 -88 144 -572 1129 -597 1214 -620 1261 -662 1317 -71 98 -178 170 -295
201 -71 19 -226 20 -306 2z"/>
</g>
</svg>
